<?xml version="1.0" encoding="UTF-8"?>
<svg xmlns="http://www.w3.org/2000/svg" xmlns:xlink="http://www.w3.org/1999/xlink" width="32px" height="32px" viewBox="0 0 32 32" version="1.1">
<g id="surface1">
<path style=" stroke:none;fill-rule:nonzero;fill:rgb(0%,0%,0%);fill-opacity:1;" d="M 16 32 C 24.835938 32 32 24.835938 32 16 C 31.996094 9.53125 28.097656 3.699219 22.121094 1.226562 C 16.144531 -1.25 9.265625 0.117188 4.691406 4.691406 C -1.554688 10.9375 -1.554688 21.0625 4.691406 27.308594 C 7.679688 30.324219 11.753906 32.011719 16 32 Z M 6.101562 6.101562 C 11.566406 0.632812 20.433594 0.632812 25.898438 6.101562 C 31.367188 11.566406 31.367188 20.429688 25.898438 25.898438 C 20.433594 31.367188 11.566406 31.367188 6.101562 25.898438 C 0.632812 20.429688 0.632812 11.566406 6.101562 6.101562 Z M 6.101562 6.101562 "/>
<path style=" stroke:none;fill-rule:nonzero;fill:rgb(0%,0%,0%);fill-opacity:1;" d="M 16 25.179688 C 18.433594 25.183594 20.769531 24.214844 22.488281 22.488281 C 22.828125 22.09375 22.808594 21.5 22.4375 21.132812 C 22.066406 20.761719 21.476562 20.738281 21.078125 21.078125 C 18.273438 23.882812 13.730469 23.878906 10.929688 21.074219 C 8.125 18.273438 8.125 13.726562 10.929688 10.925781 C 13.730469 8.121094 18.273438 8.117188 21.078125 10.921875 C 21.476562 11.261719 22.066406 11.238281 22.4375 10.867188 C 22.808594 10.5 22.828125 9.90625 22.488281 9.511719 C 20.769531 7.78125 18.429688 6.808594 15.988281 6.808594 C 13.550781 6.808594 11.210938 7.78125 9.488281 9.511719 C 6.863281 12.136719 6.078125 16.089844 7.503906 19.523438 C 8.929688 22.953125 12.285156 25.1875 16 25.179688 Z M 16 25.179688 "/>
</g>
</svg>
