<?xml version="1.0" encoding="UTF-8"?>
<svg version="1.1" xmlns="http://www.w3.org/2000/svg" width="404" height="125">
<path d="M0 0 C15.51 0 31.02 0 47 0 C47 41.25 47 82.5 47 125 C31.49 125 15.98 125 0 125 C0 117.41 0 109.82 0 102 C6.27 102 12.54 102 19 102 C18.96447021 99.67791504 18.92894043 97.35583008 18.89233398 94.96337891 C18.77588543 87.30397308 18.66506423 79.64449336 18.5570364 71.98496437 C18.49134474 67.33954023 18.42373883 62.69416016 18.35180664 58.04882812 C18.28249962 53.56853125 18.21815759 49.08818842 18.15730476 44.60776901 C18.13316931 42.89566825 18.10722376 41.18359204 18.07946587 39.47154617 C18.04098829 37.07953992 18.00886095 34.68752842 17.97827148 32.29541016 C17.96532547 31.58259384 17.95237946 30.86977753 17.93904114 30.13536072 C17.88594784 25.22810432 17.88594784 25.22810432 19 23 C12.73 23 6.46 23 0 23 C0 15.41 0 7.82 0 0 Z " fill="#05AEFC" transform="translate(77,0)"/>
<path d="M0 0 C15.51 0 31.02 0 47 0 C47 7.59 47 15.18 47 23 C40.73 23 34.46 23 28 23 C28 49.07 28 75.14 28 102 C34.27 102 40.54 102 47 102 C47 109.59 47 117.18 47 125 C31.49 125 15.98 125 0 125 C0 83.75 0 42.5 0 0 Z " fill="#05AEFC" transform="translate(0,0)"/>
<path d="M0 0 C6.6 0 13.2 0 20 0 C20.82242187 1.65644531 21.64484375 3.31289063 22.4921875 5.01953125 C28.79229729 17.68039259 35.15692298 30.29299241 41.83422852 42.76025391 C43.59929262 46.15139487 45.2903048 49.5806096 47 53 C47.33 35.51 47.66 18.02 48 0 C52.62 0 57.24 0 62 0 C62 24.09 62 48.18 62 73 C55.73 73 49.46 73 43 73 C38.4263659 64.3378142 33.8590722 55.67350612 29.359375 46.97265625 C29.05013092 46.37490891 28.74088684 45.77716156 28.42227173 45.16130066 C26.88729039 42.19350516 25.35430285 39.2247125 23.82373047 36.25463867 C23.25541504 35.15482666 22.68709961 34.05501465 22.1015625 32.921875 C21.59963379 31.94831055 21.09770508 30.97474609 20.58056641 29.97167969 C18.791906 26.60875499 16.88979892 23.30714811 15 20 C14.67 37.49 14.34 54.98 14 73 C9.38 73 4.76 73 0 73 C0 48.91 0 24.82 0 0 Z " fill="#181818" transform="translate(255,26)"/>
<path d="M0 0 C4.64006576 3.85551358 7.94231049 7.28787139 9.48828125 13.265625 C9.69659762 16.64332612 9.62765615 19.87416918 9.48828125 23.265625 C4.86828125 23.265625 0.24828125 23.265625 -4.51171875 23.265625 C-4.73859375 21.698125 -4.96546875 20.130625 -5.19921875 18.515625 C-5.93138726 14.8443971 -6.28080009 13.51477408 -8.88671875 10.703125 C-14.04578641 7.87792128 -18.97172553 7.49447725 -24.7890625 8.76171875 C-31.24640577 10.66346544 -34.8623743 13.37927222 -38.26171875 19.328125 C-41.9462023 27.98666135 -41.92386715 38.70342392 -38.4140625 47.4375 C-36.00167139 52.32494172 -32.96480843 55.26793656 -28.0625 57.5390625 C-21.91784558 59.28930097 -14.51215285 59.63690116 -8.6484375 56.95703125 C-6.16081535 55.32579737 -6.16081535 55.32579737 -5.51171875 51.765625 C-5.17419047 48.41171737 -5.17419047 48.41171737 -6.65625 46.65234375 C-9.06687159 44.8507213 -11.28551949 44.29798011 -14.19921875 43.578125 C-15.95234375 43.145 -17.70546875 42.711875 -19.51171875 42.265625 C-19.51171875 38.635625 -19.51171875 35.005625 -19.51171875 31.265625 C-7.96171875 31.265625 3.58828125 31.265625 15.48828125 31.265625 C15.48828125 34.895625 15.48828125 38.525625 15.48828125 42.265625 C10.53828125 42.760625 10.53828125 42.760625 5.48828125 43.265625 C6.47828125 44.585625 7.46828125 45.905625 8.48828125 47.265625 C9.86876313 53.28058177 9.73405227 56.7883864 6.48828125 62.265625 C0.37518219 69.30394986 -7.78295553 71.60147481 -16.84375 72.26171875 C-27.97847816 72.27802143 -37.72382819 69.119013 -45.88671875 61.453125 C-53.42268637 53.37019199 -55.90841093 43.82850193 -55.88671875 32.953125 C-55.88510742 32.11370361 -55.88349609 31.27428223 -55.88183594 30.40942383 C-55.75530574 24.01034498 -54.77189224 18.85772814 -51.51171875 13.265625 C-50.93421875 12.21375 -50.35671875 11.161875 -49.76171875 10.078125 C-38.32244586 -4.22096611 -16.18717011 -11.17745494 0 0 Z " fill="#171717" transform="translate(388.51171875,28.734375)"/>
<path d="M0 0 C4.29 0 8.58 0 13 0 C13 9.57 13 19.14 13 29 C30.325 28.505 30.325 28.505 48 28 C48 18.76 48 9.52 48 0 C52.62 0 57.24 0 62 0 C62 24.09 62 48.18 62 73 C57.38 73 52.76 73 48 73 C48 62.44 48 51.88 48 41 C36.78 41 25.56 41 14 41 C13.67 51.56 13.34 62.12 13 73 C8.71 73 4.42 73 0 73 C0 48.91 0 24.82 0 0 Z " fill="#171717" transform="translate(173,26)"/>
<path d="M0 0 C6.6 0 13.2 0 20 0 C20 0.66 20 1.32 20 2 C14.06 2 8.12 2 2 2 C2 24.77 2 47.54 2 71 C5.3 71 8.6 71 12 71 C12 52.52 12 34.04 12 15 C13.32 15.66 14.64 16.32 16 17 C15.67 17.33 15.34 17.66 15 18 C14.87692689 19.71774167 14.82213442 21.44042739 14.79467773 23.16235352 C14.77473251 24.26341934 14.75478729 25.36448517 14.73423767 26.49891663 C14.71752518 27.6968132 14.70081268 28.89470978 14.68359375 30.12890625 C14.66281265 31.34827377 14.64203156 32.5676413 14.62062073 33.82395935 C14.55499572 37.73674645 14.49618028 41.64960317 14.4375 45.5625 C14.39432709 48.20768962 14.35071322 50.85287209 14.30664062 53.49804688 C14.19930116 59.99862575 14.0980706 66.49927495 14 73 C9.38 73 4.76 73 0 73 C0 48.91 0 24.82 0 0 Z " fill="#0D0D0D" transform="translate(255,26)"/>
<path d="M0 0 C3.63 0 7.26 0 11 0 C11.33 23.76 11.66 47.52 12 72 C7.38 72 2.76 72 -2 72 C-2 61.44 -2 50.88 -2 40 C-1.67 41.32 -1.34 42.64 -1 44 C-0.34 44 0.32 44 1 44 C1 52.25 1 60.5 1 69 C3.97 69.33 6.94 69.66 10 70 C10 47.23 10 24.46 10 1 C6.7 1 3.4 1 0 1 C0 0.67 0 0.34 0 0 Z " fill="#090909" transform="translate(223,27)"/>
<path d="M0 0 C5.61 0 11.22 0 17 0 C17 0.33 17 0.66 17 1 C16.01 1.165 15.02 1.33 14 1.5 C13.1646875 1.63921875 13.1646875 1.63921875 12.3125 1.78125 C8.88950733 2.1050466 5.43827327 2 2 2 C2 8.27 2 14.54 2 21 C16.52 21 31.04 21 46 21 C46 21.33 46 21.66 46 22 C30.82 22.33 15.64 22.66 0 23 C0 15.41 0 7.82 0 0 Z " fill="#20A4E6" transform="translate(77,102)"/>
<path d="M0 0 C4 4.75 4 4.75 4 7 C4.66 7.33 5.32 7.66 6 8 C7.28052934 10.5060133 8.47481345 12.99795803 9.625 15.5625 C9.94984375 16.27341797 10.2746875 16.98433594 10.609375 17.71679688 C11.41190993 19.47529252 12.20668959 21.23732367 13 23 C18.28 23.33 23.56 23.66 29 24 C27 26 27 26 23.5234375 26.1953125 C22.14049032 26.18201493 20.75761346 26.15816232 19.375 26.125 C18.31539063 26.11146484 18.31539063 26.11146484 17.234375 26.09765625 C15.48943902 26.07407603 13.74467705 26.03820461 12 26 C10.39479066 22.95888251 8.79102164 19.91700767 7.1875 16.875 C6.73568359 16.0190625 6.28386719 15.163125 5.81835938 14.28125 C3.49750235 9.87670382 1.20307093 5.46469523 -1 1 C-0.67 0.67 -0.34 0.34 0 0 Z " fill="#0C0C0C" transform="translate(286,73)"/>
<path d="M0 0 C4.79416314 3.51571964 7.26230997 6.11116157 9 12 C9.22048797 15.35141714 9.18211357 18.64776125 9 22 C7.20866022 22.05391993 5.41686101 22.09275571 3.625 22.125 C2.62726563 22.14820312 1.62953125 22.17140625 0.6015625 22.1953125 C-2 22 -2 22 -4 20 C-0.37 20 3.26 20 7 20 C6.71125 18.2675 6.4225 16.535 6.125 14.75 C5.96257812 13.77546875 5.80015625 12.8009375 5.6328125 11.796875 C4.84762835 8.32655495 3.89734214 5.89734214 1.375 3.375 C0.92125 2.92125 0.4675 2.4675 0 2 C0 1.34 0 0.68 0 0 Z " fill="#0C0C0C" transform="translate(389,30)"/>
<path d="M0 0 C-2.4236329 2.4236329 -4.00776965 2.6459746 -7.3125 3.4375 C-12.91444591 4.91477555 -16.49921524 6.11329916 -20.1875 10.75 C-22.12606991 14.22605639 -23.07651965 17.15216522 -24 21 C-24.66 21 -25.32 21 -26 21 C-25.65619081 14.29572072 -21.82053243 9.2829148 -17.5703125 4.3359375 C-12.7654366 0.24820726 -6.05367039 -0.38640449 0 0 Z " fill="#0C0C0C" transform="translate(372,34)"/>
<path d="M0 0 C0.66 0 1.32 0 2 0 C1.50977282 4.24863557 -0.9572166 7.18372653 -4 10 C-9.03506601 13.47737675 -14.83561481 15.38367543 -21 15 C-21.66 14.34 -22.32 13.68 -23 13 C-22.07058594 12.84144531 -21.14117187 12.68289062 -20.18359375 12.51953125 C-10.17639655 10.64920454 -10.17639655 10.64920454 -2 5 C-0.52227843 2.3621433 -0.52227843 2.3621433 0 0 Z " fill="#0A0A0A" transform="translate(395,85)"/>
<path d="M0 0 C0.33 0 0.66 0 1 0 C1.33 9.24 1.66 18.48 2 28 C-1.89552198 26.05223901 -2.65511102 25.53458451 -4.75 22.0625 C-5.17796875 21.37285156 -5.6059375 20.68320313 -6.046875 19.97265625 C-7 18 -7 18 -7 15 C-6.34 15 -5.68 15 -5 15 C-3.68 17.64 -2.36 20.28 -1 23 C-0.67 15.41 -0.34 7.82 0 0 Z " fill="#131313" transform="translate(303,56)"/>
<path d="M0 0 C0.66 0 1.32 0 2 0 C5.3 6.27 8.6 12.54 12 19 C11.34 19.66 10.68 20.32 10 21 C8.0625 19.875 8.0625 19.875 6 18 C5.66666667 16 5.33333333 14 5 12 C3.78441975 9.61370992 2.45244656 7.33701574 1.05859375 5.05078125 C0 3 0 3 0 0 Z " fill="#0F0F0F" transform="translate(277,34)"/>
<path d="M0 0 C0.99 0.33 1.98 0.66 3 1 C2.46890625 1.36351563 1.9378125 1.72703125 1.390625 2.1015625 C-5.17869967 6.77681181 -8.53259258 11.71844441 -12 19 C-12.33 19 -12.66 19 -13 19 C-13.36150494 13.91247925 -11.8814114 11.86225686 -8.7890625 8.0078125 C-3.41421902 1.97578292 -3.41421902 1.97578292 0 0 Z " fill="#0C0C0C" transform="translate(349,29)"/>
<path d="M0 0 C5.04462653 4.80440622 7.01230801 9.40255426 9 16 C6 15 6 15 4.39453125 12.3828125 C3.87246094 11.30773437 3.35039062 10.23265625 2.8125 9.125 C2.28269531 8.05507812 1.75289063 6.98515625 1.20703125 5.8828125 C0 3 0 3 0 0 Z " fill="#0D0D0D" transform="translate(277,56)"/>
<path d="M0 0 C0.680625 0.721875 1.36125 1.44375 2.0625 2.1875 C6.09944519 6.22444519 10.75690342 9.6930375 16 12 C14.375 12.75 14.375 12.75 12 13 C7.22693728 10.40594417 3.5910796 7.01858907 0 3 C0 2.01 0 1.02 0 0 Z " fill="#080808" transform="translate(340,84)"/>
<path d="M0 0 C0.66 0 1.32 0 2 0 C2.86375896 1.61992165 3.71575854 3.24611861 4.5625 4.875 C5.03816406 5.77992187 5.51382812 6.68484375 6.00390625 7.6171875 C6.33261719 8.40351562 6.66132813 9.18984375 7 10 C6.67 10.66 6.34 11.32 6 12 C4.99157547 10.56839732 3.99352109 9.12948547 3 7.6875 C2.1646875 6.48673828 2.1646875 6.48673828 1.3125 5.26171875 C0 3 0 3 0 0 Z " fill="#0C0C0C" transform="translate(296,71)"/>
<path d="M0 0 C1.32 0.33 2.64 0.66 4 1 C4.66666667 3.66666667 5.33333333 6.33333333 6 9 C5.34 9 4.68 9 4 9 C0 2.25 0 2.25 0 0 Z " fill="#101010" transform="translate(270,44)"/>
</svg>
